# xmcd
#
# Track frame offsets:
#	150
#	20805
#	41709
#	65212
#	88714
#	107416
#	133167
#	147970
#	170280
#	190687
#
# Disc length: 2736 seconds
#
# Revision: 0
# Processed by: cddbd v1.4PL0 Copyright (c) Steve Scherf et al.
# Submitted via: EasyCDDAExtractor 4.6.9.1
#
DISCID=8e0aae0a
DTITLE=BOOKER BROWN
DYEAR=1900
DGENRE=Blues
TTITLE0=CHEATING GAMES
TTITLE1=JODY I`M WAMING YOU
TTITLE2=WHY AM I STILL LONELY
TTITLE3=GOOD LOVIN DADDY
TTITLE4=I TAKE GOOD CARE OF YOU
TTITLE5=CADILAC FANNIE
TTITLE6=634-5789
TTITLE7=LOVE STILLING
TTITLE8=DON`T MOVE MY MOUNTAIN
TTITLE9=634-5789(INSTRUMENTAL)
EXTD=
EXTT0=
EXTT1=
EXTT2=
EXTT3=
EXTT4=
EXTT5=
EXTT6=
EXTT7=
EXTT8=
EXTT9=
PLAYORDER=
